<mxfile host="Electron" agent="Mozilla/5.0 (Windows NT 10.0; Win64; x64) AppleWebKit/537.36 (KHTML, like Gecko) draw.io/24.7.17 Chrome/128.0.6613.36 Electron/32.0.1 Safari/537.36" version="24.7.17">
  <diagram name="Страница — 1" id="LOQRzb311JnGofg10nae">
    <mxGraphModel dx="1434" dy="844" grid="1" gridSize="10" guides="1" tooltips="1" connect="1" arrows="1" fold="1" page="1" pageScale="1" pageWidth="827" pageHeight="1169" math="0" shadow="0">
      <root>
        <mxCell id="0" />
        <mxCell id="1" parent="0" />
        <mxCell id="NtbO2HYrtQf--sDhEYxT-1" value="NotesDatabase" style="swimlane;fontStyle=1;align=center;verticalAlign=top;childLayout=stackLayout;horizontal=1;startSize=26;horizontalStack=0;resizeParent=1;resizeParentMax=0;resizeLast=0;collapsible=1;marginBottom=0;whiteSpace=wrap;html=1;" parent="1" vertex="1">
          <mxGeometry x="40" y="40" width="160" height="86" as="geometry" />
        </mxCell>
        <mxCell id="NtbO2HYrtQf--sDhEYxT-2" value="+ field: type" style="text;strokeColor=none;fillColor=none;align=left;verticalAlign=top;spacingLeft=4;spacingRight=4;overflow=hidden;rotatable=0;points=[[0,0.5],[1,0.5]];portConstraint=eastwest;whiteSpace=wrap;html=1;" parent="NtbO2HYrtQf--sDhEYxT-1" vertex="1">
          <mxGeometry y="26" width="160" height="26" as="geometry" />
        </mxCell>
        <mxCell id="NtbO2HYrtQf--sDhEYxT-3" value="" style="line;strokeWidth=1;fillColor=none;align=left;verticalAlign=middle;spacingTop=-1;spacingLeft=3;spacingRight=3;rotatable=0;labelPosition=right;points=[];portConstraint=eastwest;strokeColor=inherit;" parent="NtbO2HYrtQf--sDhEYxT-1" vertex="1">
          <mxGeometry y="52" width="160" height="8" as="geometry" />
        </mxCell>
        <mxCell id="NtbO2HYrtQf--sDhEYxT-4" value="+ method(type): type" style="text;strokeColor=none;fillColor=none;align=left;verticalAlign=top;spacingLeft=4;spacingRight=4;overflow=hidden;rotatable=0;points=[[0,0.5],[1,0.5]];portConstraint=eastwest;whiteSpace=wrap;html=1;" parent="NtbO2HYrtQf--sDhEYxT-1" vertex="1">
          <mxGeometry y="60" width="160" height="26" as="geometry" />
        </mxCell>
        <mxCell id="NtbO2HYrtQf--sDhEYxT-5" value="NotesRecord" style="swimlane;fontStyle=1;align=center;verticalAlign=top;childLayout=stackLayout;horizontal=1;startSize=26;horizontalStack=0;resizeParent=1;resizeParentMax=0;resizeLast=0;collapsible=1;marginBottom=0;whiteSpace=wrap;html=1;" parent="1" vertex="1">
          <mxGeometry x="40" y="130" width="160" height="86" as="geometry" />
        </mxCell>
        <mxCell id="NtbO2HYrtQf--sDhEYxT-6" value="+ field: type" style="text;strokeColor=none;fillColor=none;align=left;verticalAlign=top;spacingLeft=4;spacingRight=4;overflow=hidden;rotatable=0;points=[[0,0.5],[1,0.5]];portConstraint=eastwest;whiteSpace=wrap;html=1;" parent="NtbO2HYrtQf--sDhEYxT-5" vertex="1">
          <mxGeometry y="26" width="160" height="26" as="geometry" />
        </mxCell>
        <mxCell id="NtbO2HYrtQf--sDhEYxT-7" value="" style="line;strokeWidth=1;fillColor=none;align=left;verticalAlign=middle;spacingTop=-1;spacingLeft=3;spacingRight=3;rotatable=0;labelPosition=right;points=[];portConstraint=eastwest;strokeColor=inherit;" parent="NtbO2HYrtQf--sDhEYxT-5" vertex="1">
          <mxGeometry y="52" width="160" height="8" as="geometry" />
        </mxCell>
        <mxCell id="NtbO2HYrtQf--sDhEYxT-8" value="+ method(type): type" style="text;strokeColor=none;fillColor=none;align=left;verticalAlign=top;spacingLeft=4;spacingRight=4;overflow=hidden;rotatable=0;points=[[0,0.5],[1,0.5]];portConstraint=eastwest;whiteSpace=wrap;html=1;" parent="NtbO2HYrtQf--sDhEYxT-5" vertex="1">
          <mxGeometry y="60" width="160" height="26" as="geometry" />
        </mxCell>
        <mxCell id="NtbO2HYrtQf--sDhEYxT-9" value="Notestable" style="swimlane;fontStyle=1;align=center;verticalAlign=top;childLayout=stackLayout;horizontal=1;startSize=26;horizontalStack=0;resizeParent=1;resizeParentMax=0;resizeLast=0;collapsible=1;marginBottom=0;whiteSpace=wrap;html=1;" parent="1" vertex="1">
          <mxGeometry x="40" y="220" width="160" height="86" as="geometry" />
        </mxCell>
        <mxCell id="NtbO2HYrtQf--sDhEYxT-10" value="+ field: type" style="text;strokeColor=none;fillColor=none;align=left;verticalAlign=top;spacingLeft=4;spacingRight=4;overflow=hidden;rotatable=0;points=[[0,0.5],[1,0.5]];portConstraint=eastwest;whiteSpace=wrap;html=1;" parent="NtbO2HYrtQf--sDhEYxT-9" vertex="1">
          <mxGeometry y="26" width="160" height="26" as="geometry" />
        </mxCell>
        <mxCell id="NtbO2HYrtQf--sDhEYxT-11" value="" style="line;strokeWidth=1;fillColor=none;align=left;verticalAlign=middle;spacingTop=-1;spacingLeft=3;spacingRight=3;rotatable=0;labelPosition=right;points=[];portConstraint=eastwest;strokeColor=inherit;" parent="NtbO2HYrtQf--sDhEYxT-9" vertex="1">
          <mxGeometry y="52" width="160" height="8" as="geometry" />
        </mxCell>
        <mxCell id="NtbO2HYrtQf--sDhEYxT-12" value="+ method(type): type" style="text;strokeColor=none;fillColor=none;align=left;verticalAlign=top;spacingLeft=4;spacingRight=4;overflow=hidden;rotatable=0;points=[[0,0.5],[1,0.5]];portConstraint=eastwest;whiteSpace=wrap;html=1;" parent="NtbO2HYrtQf--sDhEYxT-9" vertex="1">
          <mxGeometry y="60" width="160" height="26" as="geometry" />
        </mxCell>
        <mxCell id="NtbO2HYrtQf--sDhEYxT-14" value="Database" style="shape=umlFrame;whiteSpace=wrap;html=1;pointerEvents=0;" parent="1" vertex="1">
          <mxGeometry x="30" width="180" height="320" as="geometry" />
        </mxCell>
        <mxCell id="NtbO2HYrtQf--sDhEYxT-15" value="Entities" style="shape=umlFrame;whiteSpace=wrap;html=1;pointerEvents=0;" parent="1" vertex="1">
          <mxGeometry x="250" y="640" width="220" height="160" as="geometry" />
        </mxCell>
        <mxCell id="NtbO2HYrtQf--sDhEYxT-16" value="Note" style="swimlane;fontStyle=1;align=center;verticalAlign=top;childLayout=stackLayout;horizontal=1;startSize=26;horizontalStack=0;resizeParent=1;resizeParentMax=0;resizeLast=0;collapsible=1;marginBottom=0;whiteSpace=wrap;html=1;" parent="1" vertex="1">
          <mxGeometry x="290" y="677" width="160" height="86" as="geometry" />
        </mxCell>
        <mxCell id="NtbO2HYrtQf--sDhEYxT-17" value="+ field: type" style="text;strokeColor=none;fillColor=none;align=left;verticalAlign=top;spacingLeft=4;spacingRight=4;overflow=hidden;rotatable=0;points=[[0,0.5],[1,0.5]];portConstraint=eastwest;whiteSpace=wrap;html=1;" parent="NtbO2HYrtQf--sDhEYxT-16" vertex="1">
          <mxGeometry y="26" width="160" height="26" as="geometry" />
        </mxCell>
        <mxCell id="NtbO2HYrtQf--sDhEYxT-18" value="" style="line;strokeWidth=1;fillColor=none;align=left;verticalAlign=middle;spacingTop=-1;spacingLeft=3;spacingRight=3;rotatable=0;labelPosition=right;points=[];portConstraint=eastwest;strokeColor=inherit;" parent="NtbO2HYrtQf--sDhEYxT-16" vertex="1">
          <mxGeometry y="52" width="160" height="8" as="geometry" />
        </mxCell>
        <mxCell id="NtbO2HYrtQf--sDhEYxT-19" value="+ method(type): type" style="text;strokeColor=none;fillColor=none;align=left;verticalAlign=top;spacingLeft=4;spacingRight=4;overflow=hidden;rotatable=0;points=[[0,0.5],[1,0.5]];portConstraint=eastwest;whiteSpace=wrap;html=1;" parent="NtbO2HYrtQf--sDhEYxT-16" vertex="1">
          <mxGeometry y="60" width="160" height="26" as="geometry" />
        </mxCell>
        <mxCell id="NtbO2HYrtQf--sDhEYxT-20" value="Interfaces" style="shape=umlFrame;whiteSpace=wrap;html=1;pointerEvents=0;" parent="1" vertex="1">
          <mxGeometry x="640" y="510" width="150" height="300" as="geometry" />
        </mxCell>
        <mxCell id="NtbO2HYrtQf--sDhEYxT-21" value="«interface»&lt;br&gt;&lt;b&gt;Editor&lt;/b&gt;" style="html=1;whiteSpace=wrap;" parent="1" vertex="1">
          <mxGeometry x="650" y="548" width="110" height="50" as="geometry" />
        </mxCell>
        <mxCell id="NtbO2HYrtQf--sDhEYxT-22" value="«interface»&lt;br&gt;&lt;b&gt;NoteEditor&lt;/b&gt;" style="html=1;whiteSpace=wrap;" parent="1" vertex="1">
          <mxGeometry x="650" y="610" width="110" height="50" as="geometry" />
        </mxCell>
        <mxCell id="NtbO2HYrtQf--sDhEYxT-23" value="«interface»&lt;br&gt;&lt;div&gt;NotesDatabaseContext&lt;/div&gt;" style="html=1;whiteSpace=wrap;" parent="1" vertex="1">
          <mxGeometry x="650" y="676" width="130" height="50" as="geometry" />
        </mxCell>
        <mxCell id="NtbO2HYrtQf--sDhEYxT-24" value="«interface»&lt;br&gt;&lt;b&gt;NotesPresenter&lt;/b&gt;" style="html=1;whiteSpace=wrap;" parent="1" vertex="1">
          <mxGeometry x="650" y="746" width="110" height="50" as="geometry" />
        </mxCell>
        <mxCell id="NtbO2HYrtQf--sDhEYxT-25" value="Controllers" style="shape=umlFrame;whiteSpace=wrap;html=1;pointerEvents=0;width=76;height=30;" parent="1" vertex="1">
          <mxGeometry x="54" y="380" width="176" height="140" as="geometry" />
        </mxCell>
        <mxCell id="NtbO2HYrtQf--sDhEYxT-26" value="&lt;p style=&quot;margin:0px;margin-top:4px;text-align:center;&quot;&gt;&lt;b&gt;NoteController&lt;/b&gt;&lt;/p&gt;&lt;hr size=&quot;1&quot; style=&quot;border-style:solid;&quot;&gt;&lt;p style=&quot;margin:0px;margin-left:4px;&quot;&gt;+ field: Type&lt;/p&gt;&lt;hr size=&quot;1&quot; style=&quot;border-style:solid;&quot;&gt;&lt;p style=&quot;margin:0px;margin-left:4px;&quot;&gt;+ method(): Type&lt;/p&gt;" style="verticalAlign=top;align=left;overflow=fill;html=1;whiteSpace=wrap;" parent="1" vertex="1">
          <mxGeometry x="250" y="418" width="160" height="90" as="geometry" />
        </mxCell>
        <mxCell id="NtbO2HYrtQf--sDhEYxT-27" value="Presenter" style="shape=umlFrame;whiteSpace=wrap;html=1;pointerEvents=0;" parent="1" vertex="1">
          <mxGeometry x="533" y="56" width="220" height="140" as="geometry" />
        </mxCell>
        <mxCell id="NtbO2HYrtQf--sDhEYxT-29" value="NoteConsolePresenter" style="swimlane;fontStyle=1;align=center;verticalAlign=top;childLayout=stackLayout;horizontal=1;startSize=26;horizontalStack=0;resizeParent=1;resizeParentMax=0;resizeLast=0;collapsible=1;marginBottom=0;whiteSpace=wrap;html=1;" parent="1" vertex="1">
          <mxGeometry x="563" y="96" width="160" height="86" as="geometry" />
        </mxCell>
        <mxCell id="NtbO2HYrtQf--sDhEYxT-30" value="+ field: type" style="text;strokeColor=none;fillColor=none;align=left;verticalAlign=top;spacingLeft=4;spacingRight=4;overflow=hidden;rotatable=0;points=[[0,0.5],[1,0.5]];portConstraint=eastwest;whiteSpace=wrap;html=1;" parent="NtbO2HYrtQf--sDhEYxT-29" vertex="1">
          <mxGeometry y="26" width="160" height="26" as="geometry" />
        </mxCell>
        <mxCell id="NtbO2HYrtQf--sDhEYxT-31" value="" style="line;strokeWidth=1;fillColor=none;align=left;verticalAlign=middle;spacingTop=-1;spacingLeft=3;spacingRight=3;rotatable=0;labelPosition=right;points=[];portConstraint=eastwest;strokeColor=inherit;" parent="NtbO2HYrtQf--sDhEYxT-29" vertex="1">
          <mxGeometry y="52" width="160" height="8" as="geometry" />
        </mxCell>
        <mxCell id="NtbO2HYrtQf--sDhEYxT-32" value="+ method(type): type" style="text;strokeColor=none;fillColor=none;align=left;verticalAlign=top;spacingLeft=4;spacingRight=4;overflow=hidden;rotatable=0;points=[[0,0.5],[1,0.5]];portConstraint=eastwest;whiteSpace=wrap;html=1;" parent="NtbO2HYrtQf--sDhEYxT-29" vertex="1">
          <mxGeometry y="60" width="160" height="26" as="geometry" />
        </mxCell>
        <mxCell id="NtbO2HYrtQf--sDhEYxT-33" value="ConcreteNoteEditor" style="swimlane;fontStyle=1;align=center;verticalAlign=top;childLayout=stackLayout;horizontal=1;startSize=26;horizontalStack=0;resizeParent=1;resizeParentMax=0;resizeLast=0;collapsible=1;marginBottom=0;whiteSpace=wrap;html=1;" parent="1" vertex="1">
          <mxGeometry x="60" y="418" width="160" height="90" as="geometry" />
        </mxCell>
        <mxCell id="NtbO2HYrtQf--sDhEYxT-34" value="+ field: type" style="text;strokeColor=none;fillColor=none;align=left;verticalAlign=top;spacingLeft=4;spacingRight=4;overflow=hidden;rotatable=0;points=[[0,0.5],[1,0.5]];portConstraint=eastwest;whiteSpace=wrap;html=1;" parent="NtbO2HYrtQf--sDhEYxT-33" vertex="1">
          <mxGeometry y="26" width="160" height="26" as="geometry" />
        </mxCell>
        <mxCell id="NtbO2HYrtQf--sDhEYxT-35" value="" style="line;strokeWidth=1;fillColor=none;align=left;verticalAlign=middle;spacingTop=-1;spacingLeft=3;spacingRight=3;rotatable=0;labelPosition=right;points=[];portConstraint=eastwest;strokeColor=inherit;" parent="NtbO2HYrtQf--sDhEYxT-33" vertex="1">
          <mxGeometry y="52" width="160" height="8" as="geometry" />
        </mxCell>
        <mxCell id="NtbO2HYrtQf--sDhEYxT-36" value="+ method(type): type" style="text;strokeColor=none;fillColor=none;align=left;verticalAlign=top;spacingLeft=4;spacingRight=4;overflow=hidden;rotatable=0;points=[[0,0.5],[1,0.5]];portConstraint=eastwest;whiteSpace=wrap;html=1;" parent="NtbO2HYrtQf--sDhEYxT-33" vertex="1">
          <mxGeometry y="60" width="160" height="30" as="geometry" />
        </mxCell>
        <mxCell id="NtbO2HYrtQf--sDhEYxT-37" value="Interactor" style="shape=umlFrame;whiteSpace=wrap;html=1;pointerEvents=0;" parent="1" vertex="1">
          <mxGeometry x="240" y="380" width="180" height="140" as="geometry" />
        </mxCell>
        <mxCell id="NtbO2HYrtQf--sDhEYxT-44" value="Extends" style="endArrow=block;endSize=16;endFill=0;html=1;rounded=0;exitX=1;exitY=0.5;exitDx=0;exitDy=0;entryX=1;entryY=0.5;entryDx=0;entryDy=0;" parent="1" source="NtbO2HYrtQf--sDhEYxT-22" target="NtbO2HYrtQf--sDhEYxT-21" edge="1">
          <mxGeometry width="160" relative="1" as="geometry">
            <mxPoint x="610" y="850" as="sourcePoint" />
            <mxPoint x="770" y="850" as="targetPoint" />
            <Array as="points">
              <mxPoint x="800" y="635" />
              <mxPoint x="800" y="573" />
            </Array>
          </mxGeometry>
        </mxCell>
        <mxCell id="NtbO2HYrtQf--sDhEYxT-45" value="NotesDbContext" style="swimlane;fontStyle=1;align=center;verticalAlign=top;childLayout=stackLayout;horizontal=1;startSize=26;horizontalStack=0;resizeParent=1;resizeParentMax=0;resizeLast=0;collapsible=1;marginBottom=0;whiteSpace=wrap;html=1;" parent="1" vertex="1">
          <mxGeometry x="430" y="422" width="160" height="86" as="geometry" />
        </mxCell>
        <mxCell id="NtbO2HYrtQf--sDhEYxT-46" value="+ field: type" style="text;strokeColor=none;fillColor=none;align=left;verticalAlign=top;spacingLeft=4;spacingRight=4;overflow=hidden;rotatable=0;points=[[0,0.5],[1,0.5]];portConstraint=eastwest;whiteSpace=wrap;html=1;" parent="NtbO2HYrtQf--sDhEYxT-45" vertex="1">
          <mxGeometry y="26" width="160" height="26" as="geometry" />
        </mxCell>
        <mxCell id="NtbO2HYrtQf--sDhEYxT-47" value="" style="line;strokeWidth=1;fillColor=none;align=left;verticalAlign=middle;spacingTop=-1;spacingLeft=3;spacingRight=3;rotatable=0;labelPosition=right;points=[];portConstraint=eastwest;strokeColor=inherit;" parent="NtbO2HYrtQf--sDhEYxT-45" vertex="1">
          <mxGeometry y="52" width="160" height="8" as="geometry" />
        </mxCell>
        <mxCell id="NtbO2HYrtQf--sDhEYxT-48" value="+ method(type): type" style="text;strokeColor=none;fillColor=none;align=left;verticalAlign=top;spacingLeft=4;spacingRight=4;overflow=hidden;rotatable=0;points=[[0,0.5],[1,0.5]];portConstraint=eastwest;whiteSpace=wrap;html=1;" parent="NtbO2HYrtQf--sDhEYxT-45" vertex="1">
          <mxGeometry y="60" width="160" height="26" as="geometry" />
        </mxCell>
        <mxCell id="hyJXELVvDqxbJUolfPzC-1" value="Domain" style="shape=umlFrame;whiteSpace=wrap;html=1;pointerEvents=0;" vertex="1" parent="1">
          <mxGeometry x="240" y="600" width="240" height="210" as="geometry" />
        </mxCell>
        <mxCell id="hyJXELVvDqxbJUolfPzC-2" value="Busines logic" style="shape=umlFrame;whiteSpace=wrap;html=1;pointerEvents=0;width=90;height=30;" vertex="1" parent="1">
          <mxGeometry x="30" y="345" width="570" height="210" as="geometry" />
        </mxCell>
        <mxCell id="hyJXELVvDqxbJUolfPzC-3" value="UI" style="shape=umlFrame;whiteSpace=wrap;html=1;pointerEvents=0;" vertex="1" parent="1">
          <mxGeometry x="520" y="20" width="243" height="200" as="geometry" />
        </mxCell>
        <mxCell id="hyJXELVvDqxbJUolfPzC-4" value="Use" style="endArrow=open;endSize=12;dashed=1;html=1;rounded=0;exitX=1;exitY=0.457;exitDx=0;exitDy=0;exitPerimeter=0;entryX=1;entryY=0.5;entryDx=0;entryDy=0;" edge="1" parent="1" source="NtbO2HYrtQf--sDhEYxT-27" target="NtbO2HYrtQf--sDhEYxT-24">
          <mxGeometry width="160" relative="1" as="geometry">
            <mxPoint x="570" y="410" as="sourcePoint" />
            <mxPoint x="730" y="410" as="targetPoint" />
            <Array as="points">
              <mxPoint x="800" y="120" />
              <mxPoint x="800" y="771" />
            </Array>
          </mxGeometry>
        </mxCell>
        <mxCell id="hyJXELVvDqxbJUolfPzC-5" value="return" style="html=1;verticalAlign=bottom;endArrow=open;dashed=1;endSize=8;curved=0;rounded=0;entryX=0.473;entryY=1.014;entryDx=0;entryDy=0;entryPerimeter=0;exitX=0.494;exitY=0.007;exitDx=0;exitDy=0;exitPerimeter=0;" edge="1" parent="1" source="NtbO2HYrtQf--sDhEYxT-37" target="NtbO2HYrtQf--sDhEYxT-27">
          <mxGeometry relative="1" as="geometry">
            <mxPoint x="690" y="410" as="sourcePoint" />
            <mxPoint x="610" y="410" as="targetPoint" />
            <Array as="points">
              <mxPoint x="329" y="310" />
              <mxPoint x="637" y="310" />
            </Array>
          </mxGeometry>
        </mxCell>
        <mxCell id="hyJXELVvDqxbJUolfPzC-6" value="return" style="html=1;verticalAlign=bottom;endArrow=open;dashed=1;endSize=8;curved=0;rounded=0;entryX=1.017;entryY=0.15;entryDx=0;entryDy=0;entryPerimeter=0;exitX=0.5;exitY=0;exitDx=0;exitDy=0;" edge="1" parent="1" source="NtbO2HYrtQf--sDhEYxT-45" target="NtbO2HYrtQf--sDhEYxT-37">
          <mxGeometry relative="1" as="geometry">
            <mxPoint x="690" y="410" as="sourcePoint" />
            <mxPoint x="610" y="410" as="targetPoint" />
            <Array as="points">
              <mxPoint x="510" y="401" />
            </Array>
          </mxGeometry>
        </mxCell>
        <mxCell id="hyJXELVvDqxbJUolfPzC-7" value="Use" style="endArrow=open;endSize=12;dashed=1;html=1;rounded=0;exitX=0.314;exitY=1.014;exitDx=0;exitDy=0;exitPerimeter=0;entryX=0.244;entryY=0.007;entryDx=0;entryDy=0;entryPerimeter=0;" edge="1" parent="1" source="NtbO2HYrtQf--sDhEYxT-27" target="NtbO2HYrtQf--sDhEYxT-37">
          <mxGeometry width="160" relative="1" as="geometry">
            <mxPoint x="570" y="410" as="sourcePoint" />
            <mxPoint x="730" y="410" as="targetPoint" />
            <Array as="points">
              <mxPoint x="602" y="300" />
              <mxPoint x="284" y="300" />
            </Array>
          </mxGeometry>
        </mxCell>
        <mxCell id="hyJXELVvDqxbJUolfPzC-8" value="Use" style="endArrow=open;endSize=12;dashed=1;html=1;rounded=0;exitX=0.091;exitY=1.014;exitDx=0;exitDy=0;exitPerimeter=0;entryX=0.244;entryY=0.007;entryDx=0;entryDy=0;entryPerimeter=0;" edge="1" parent="1" source="NtbO2HYrtQf--sDhEYxT-27">
          <mxGeometry width="160" relative="1" as="geometry">
            <mxPoint x="485" y="196" as="sourcePoint" />
            <mxPoint x="167" y="379" as="targetPoint" />
            <Array as="points">
              <mxPoint x="485" y="330" />
              <mxPoint x="170" y="330" />
            </Array>
          </mxGeometry>
        </mxCell>
        <mxCell id="hyJXELVvDqxbJUolfPzC-9" value="return" style="html=1;verticalAlign=bottom;endArrow=open;dashed=1;endSize=8;curved=0;rounded=0;entryX=0.223;entryY=1.014;entryDx=0;entryDy=0;entryPerimeter=0;exitX=0.494;exitY=0.007;exitDx=0;exitDy=0;exitPerimeter=0;" edge="1" parent="1" target="NtbO2HYrtQf--sDhEYxT-27">
          <mxGeometry relative="1" as="geometry">
            <mxPoint x="212" y="379" as="sourcePoint" />
            <mxPoint x="520" y="196" as="targetPoint" />
            <Array as="points">
              <mxPoint x="212" y="330" />
              <mxPoint x="520" y="330" />
            </Array>
          </mxGeometry>
        </mxCell>
        <mxCell id="hyJXELVvDqxbJUolfPzC-10" value="1" style="endArrow=open;html=1;endSize=12;startArrow=diamondThin;startSize=14;startFill=0;edgeStyle=orthogonalEdgeStyle;align=left;verticalAlign=bottom;rounded=0;exitX=0.5;exitY=0.979;exitDx=0;exitDy=0;exitPerimeter=0;entryX=0.5;entryY=1.077;entryDx=0;entryDy=0;entryPerimeter=0;" edge="1" parent="1" source="NtbO2HYrtQf--sDhEYxT-37" target="NtbO2HYrtQf--sDhEYxT-48">
          <mxGeometry x="-1" y="3" relative="1" as="geometry">
            <mxPoint x="570" y="410" as="sourcePoint" />
            <mxPoint x="730" y="410" as="targetPoint" />
            <Array as="points">
              <mxPoint x="330" y="540" />
              <mxPoint x="510" y="540" />
            </Array>
          </mxGeometry>
        </mxCell>
        <mxCell id="hyJXELVvDqxbJUolfPzC-11" value="Extends" style="endArrow=block;endSize=16;endFill=0;html=1;rounded=0;exitX=1;exitY=0.5;exitDx=0;exitDy=0;entryX=0;entryY=0.5;entryDx=0;entryDy=0;" edge="1" parent="1" source="NtbO2HYrtQf--sDhEYxT-46" target="NtbO2HYrtQf--sDhEYxT-23">
          <mxGeometry width="160" relative="1" as="geometry">
            <mxPoint x="570" y="410" as="sourcePoint" />
            <mxPoint x="730" y="410" as="targetPoint" />
            <Array as="points">
              <mxPoint x="620" y="461" />
              <mxPoint x="620" y="701" />
            </Array>
          </mxGeometry>
        </mxCell>
        <mxCell id="hyJXELVvDqxbJUolfPzC-12" value="1" style="endArrow=open;html=1;endSize=12;startArrow=diamondThin;startSize=14;startFill=0;edgeStyle=orthogonalEdgeStyle;align=left;verticalAlign=bottom;rounded=0;exitX=0.5;exitY=0.979;exitDx=0;exitDy=0;exitPerimeter=0;entryX=0.3;entryY=1.115;entryDx=0;entryDy=0;entryPerimeter=0;" edge="1" parent="1" target="NtbO2HYrtQf--sDhEYxT-48">
          <mxGeometry x="-1" y="3" relative="1" as="geometry">
            <mxPoint x="130" y="517" as="sourcePoint" />
            <mxPoint x="310" y="510" as="targetPoint" />
            <Array as="points">
              <mxPoint x="130" y="550" />
              <mxPoint x="478" y="550" />
            </Array>
          </mxGeometry>
        </mxCell>
        <mxCell id="hyJXELVvDqxbJUolfPzC-13" value="return" style="html=1;verticalAlign=bottom;endArrow=open;dashed=1;endSize=8;curved=0;rounded=0;exitX=1.011;exitY=0.503;exitDx=0;exitDy=0;exitPerimeter=0;entryX=-0.012;entryY=0.695;entryDx=0;entryDy=0;entryPerimeter=0;" edge="1" parent="1" source="NtbO2HYrtQf--sDhEYxT-14" target="hyJXELVvDqxbJUolfPzC-3">
          <mxGeometry relative="1" as="geometry">
            <mxPoint x="690" y="410" as="sourcePoint" />
            <mxPoint x="610" y="410" as="targetPoint" />
          </mxGeometry>
        </mxCell>
      </root>
    </mxGraphModel>
  </diagram>
</mxfile>
